<svg version="1.2" xmlns="http://www.w3.org/2000/svg" viewBox="0 0 1580 1660" width="1580" height="1660">
	<title>WIT_BIG-svg</title>
	<style>
		.s0 { fill: #2a4c87 } 
		.s1 { fill: #2e4e88 } 
		.s2 { fill: #1f3d70 } 
		.s3 { fill: #194c88 } 
		.s4 { fill: #3468a3 } 
		.s5 { fill: #4c8dcb } 
		.s6 { fill: #3498b3 } 
		.s7 { fill: #0aa496 } 
		.s8 { fill: #00aa75 } 
		.s9 { fill: #4fba6a } 
		.s10 { fill: #7ec45f } 
		.s11 { fill: #4c609b } 
		.s12 { fill: #54669f } 
		.s13 { fill: #746fa7 } 
		.s14 { fill: #99558e } 
		.s15 { fill: #af3379 } 
		.s16 { fill: #be266a } 
		.s17 { fill: #d4525c } 
		.s18 { fill: #e0654f } 
		.s19 { fill: #f57f2a } 
		.s20 { fill: #f89828 } 
		.s21 { fill: #fec127 } 
		.s22 { fill: #fed627 } 
	</style>
	<path id="path999" class="s0" d="m1439.4 548.6c45.3-12.3 91.3 14.6 102.9 59.3 12.3 45.4-14.4 91.3-59.3 103.1-45.4 12.3-91.3-14.6-103.1-59.3-11.8-44.9 15.2-90.8 59.5-103.1z"/>
	<path id="path1001" class="s0" d="m1196.3 700.9c-8.3-30.2 10.1-61.5 40.3-70 30.2-8.4 61.7 10.1 70 40.3 8.4 30.3-10.1 61.6-40.3 70-30.8 7.8-62.1-10.1-70-40.3z"/>
	<path id="path1003" class="s0" d="m1046.7 740.7c-6.1-22.5 7.4-45.4 29.7-51.5 22.4-6.2 45.4 7.2 51.6 29.6 6.1 22.4-7.2 45.3-29.7 51.5-22.4 6.2-45.4-7.2-51.6-29.6z"/>
	<path id="path1005" class="s1" d="m935.3 770.8c-3.3-13.9 5.1-28.5 19.1-32.4 14-3.3 29.1 5 32.5 19 3.3 14.1-5.1 28.6-19 32.6-14.6 3.3-29.2-5.1-32.6-19.2z"/>
	<path id="path1007" class="s2" d="m1345.8 377.4c36.4-21.3 82.9-8.5 104.1 28 21.3 36.2 8.5 82.8-27.9 104-36.4 21.3-82.9 8.4-104.2-28-21.3-36.3-8.4-82.9 28-104z"/>
	<path id="path1009" class="s2" d="m1168.8 505.5c25.9-14.6 58.2-6.2 72.8 19.7 14.6 25.7 6.2 58.1-19.5 72.7-25.8 14.6-58.2 6.1-72.8-19.6-14.6-25.8-5.7-58.2 19.5-72.8z"/>
	<path id="path1011" class="s2" d="m1081.5 617.5c10.6 18.5 4.5 41.4-14 52-18.5 10.7-41.4 4.5-52.1-13.9-10.6-18.5-4.4-41.5 14.1-52.1 18.4-10 41.9-3.9 52 14z"/>
	<path id="path1013" class="s2" d="m956.1 690.2c6.7 11.8 2.1 26.9-9.5 33.6-11.8 6.7-26.9 2.3-33.6-9.5-6.8-11.7-2.3-26.9 9.5-33.6 11.8-6.7 26.9-2.2 33.6 9.5z"/>
	<path id="path1015" class="s3" d="m1212.6 332c-26.9-26.9-26.9-70 0-96.9 26.8-26.8 69.9-26.8 96.8 0 26.9 26.9 26.9 70 0 96.9-26.9 26.9-70.6 26.9-96.8 0z"/>
	<path id="path1017" class="s3" d="m1142 471.9c-19.1 19.7-50.4 19.7-70 0-19.7-19-19.7-50.3 0-69.9 19-19.7 50.4-19.7 70 0 19.6 19 19.6 50.4 0 69.9z"/>
	<path id="path1019" class="s3" d="m1011.5 532.9c13.4 12.9 13.4 34.7 0 48.2-13.5 13.4-35.3 13.4-48.7 0-13.4-13.5-13.4-35.3 0-48.7 13.4-13.4 35.2-13.4 48.7 0.5z"/>
	<path id="path1021" class="s3" d="m878.2 633.2c9-9 23.5-9 32.5 0 9 9 9 23.4 0 32.4-9 9-23.5 9-32.5 0-9-9-9-23.4 0-32.4z"/>
	<path id="path1023" class="s4" d="m1068 216.6c-31.3-17.8-41.9-57.6-23.4-88.4 17.9-30.7 57.7-41.5 88.5-23.5 30.8 17.9 41.3 57.7 23.4 88.5-17.9 30.8-57.7 41.3-88.5 23.4 0 0-0.5 0 0 0z"/>
	<path id="path1025" class="s4" d="m1014.9 309c21.8 13 29.7 40.9 16.7 62.8-12.9 21.8-40.8 29.5-62.7 16.7-21.8-12.9-29.7-40.8-16.8-62.7 12.3-21.8 40.4-29.7 62.8-16.8z"/>
	<path id="path1027" class="s4" d="m933.1 510.6c-8.5 14.6-26.9 19.5-41.4 11.1-14.6-8.3-19.7-26.8-11.2-41.4 8.4-14.6 26.9-19.5 41.5-11.2 14.4 8.4 19.5 26.9 11.1 41.5z"/>
	<path id="path1029" class="s4" d="m859.2 619.7c-5.6 10.2-18.5 13.5-28.5 7.9-10.2-5.6-13.6-18.5-7.9-28.5 5.6-10.2 18.4-13.5 28.6-7.9 10.1 5.6 13.4 18.4 7.8 28.5z"/>
	<path id="path1031" class="s5" d="m854.8 67.7c8.3-32.5 41.9-51.5 74.4-43.1 32.5 8.5 52.1 42.1 43.1 74.5-8.4 32.5-42 52-74.4 43.1-32.6-8.5-52.1-41.9-43.1-74.5z"/>
	<path id="path1033" class="s5" d="m816.6 282.2c6.2-22.5 29.2-35.9 51.5-29.7 22.4 6.1 35.9 29 29.8 51.5-6.2 22.4-29.2 35.8-51.6 29.6-22.3-6.2-35.3-29-29.7-51.4z"/>
	<path id="path1035" class="s5" d="m785.8 450.1c3.9-15.2 19.7-24.1 34.7-20.1 15.1 3.9 24.1 19.5 20.2 34.7-3.9 15.1-19.5 24.1-34.7 20-15.1-4.4-24.1-20-20.2-34.6z"/>
	<path id="path1037" class="s5" d="m784.7 565.5c10.1 2.8 16.2 13.4 13.4 23.4-2.8 10.2-13.4 16.3-23.5 13.5-10.1-2.8-16.2-13.5-13.4-23.5 2.3-10.1 12.8-16.2 23.5-13.4z"/>
	<circle id="path1039" class="s6" cx="713" cy="57.2" r="57.2"/>
	<circle id="path1041" class="s6" cx="713" cy="274.3" r="38"/>
	<circle id="path1043" class="s6" cx="713" cy="443.9" r="26.9"/>
	<circle id="path1045" class="s6" cx="713" cy="575.5" r="17.4"/>
	<path id="path1047" class="s7" d="m461 98c-7.9-28.5 9-57.7 37.5-65.5 28.7-7.9 57.7 8.9 65.6 37.5 7.8 28.5-8.9 57.6-37.6 65.5-28 7.2-57.6-9.5-65.5-37.5z"/>
	<path id="path1049" class="s7" d="m560.1 260.4c18.5-5.1 37 5.5 42 23.9 5.1 18.5-5.6 37-24.1 42.1-18.4 5.1-36.9-5.6-42-24.1-4.9-18 6.2-37 24.1-41.9z"/>
	<path id="path1051" class="s7" d="m606.7 433.9c12.8-3.9 26.8 3.9 30.1 17.4 4 12.8-3.9 26.8-17.3 30.1-12.8 4-26.9-3.9-30.2-17.3-3.4-13.5 3.9-26.9 17.4-30.2z"/>
	<path id="path1053" class="s7" d="m643 569.9c7.9-2.3 16.3 2.3 18.4 10.7 2.3 7.8-2.1 16.2-10.5 18.5-7.9 2.1-16.2-2.3-18.5-10.7-2.3-8.5 2.8-16.2 10.6-18.5z"/>
	<path id="path1055" class="s8" d="m283.5 185.8c-13.4-23.4-5.1-54.2 18.5-67.7 23.6-13.4 54.4-5 67.7 18.4 13.6 23.6 5.1 54.4-18.4 67.8-23.6 13.5-53.7 5.6-67.8-18.5z"/>
	<path id="path1057" class="s8" d="m409 364.4c-8.5-14.5-3.4-32.9 11.2-41.4 14.5-8.4 32.9-3.3 41.4 11.3 8.4 14.4 3.3 32.9-11.3 41.3-14.4 8.5-33.6 3.4-41.3-11.2z"/>
	<path id="path1059" class="s8" d="m499.7 507.8c-6.1-11.3-2.8-25.2 8.3-31.4 11.3-6.1 25.3-2.8 31.5 8.3 6.2 11.3 2.7 25.3-8.4 31.5-10.7 6.2-24.7 2.1-31.4-8.4z"/>
	<path id="path1061" class="s8" d="m591.6 622c-6.2 3.3-14.1 1-18-5.1-3.3-6.7-1.2-14.5 5-18.5 6.8-3.3 14.6-1.1 18.5 5.1 4 6.1 1.7 14.6-5.5 18.5z"/>
	<path id="path1063" class="s9" d="m133.5 316.9c-18-18-18-47 0-65 17.9-17.9 47-17.9 64.9 0 17.9 18 17.9 47 0 65-17.4 17.9-46.5 17.9-64.9 0z"/>
	<path id="path1065" class="s9" d="m339 456.8c-10.1 10.7-26.9 10.7-37.5 0-10.7-10.1-10.7-26.8 0-37.5 10-10.6 26.9-10.6 37.5 0 10 10 10 26.9 0 37.5z"/>
	<path id="path1067" class="s9" d="m454.9 572.7c-8.4 8.4-21.3 8.4-29.7 0-8.5-8.4-8.5-21.3 0-29.7 8.4-8.3 21.3-8.3 29.7 0 7.9 8.4 7.9 21.3 0 29.7z"/>
	<path id="path1069" class="s9" d="m541.6 658.9c-4.4 3.9-11.1 3.9-15.6 0-4.4-3.9-5-11.2-0.6-15.6 3.9-4.6 11.3-5.1 15.7-0.6 4.6 4.4 4.6 11.8 0.5 16.2z"/>
	<path id="path1071" class="s10" d="m6.3 422.6c11.2-19.5 36.9-26.7 57.2-15.1 19.5 11.2 26.9 37 15.1 57.2-11.3 19.5-37 26.9-57.2 15.1-20.1-11.8-26.9-37.5-15.1-57.2z"/>
	<path id="path1073" class="s10" d="m251.7 564.8c-6.9 11.2-20.2 14.6-31.5 8.4-10.6-6.7-14.6-20-8.3-31.3 6.7-10.6 20.1-14.6 31.3-8.4 10.6 6.1 14.6 20.2 8.5 31.3z"/>
	<path id="path1075" class="s10" d="m395.6 647.7c-5.1 8.9-16.9 11.7-25.9 6.8-9.5-5.1-12.3-16.9-7.2-25.8 5-9.5 16.8-12.4 25.7-7.3 9 5.7 12.3 17.3 7.4 26.3z"/>
	<circle id="path1077" class="s11" cx="1488.1" cy="830.3" r="91.8"/>
	<circle id="path1079" class="s11" cx="1270.8" cy="830.3" r="65.5"/>
	<circle id="path1081" class="s11" cx="1101.1" cy="830.3" r="44.8"/>
	<circle id="path1083" class="s12" cx="969.5" cy="830.3" r="29.2"/>
	<path id="path1085" class="s13" d="m1542.3 1051.3v0.7c-12.3 44.7-58.2 71.6-102.9 59.3-44.9-12.4-71.8-58.3-59.5-103.1 12.3-44.7 58.3-71.6 103.1-59.3 44.2 12.3 71.1 58.2 59.3 102.4z"/>
	<path id="path1087" class="s13" d="m1196.3 958.9c8.4-30.1 39.7-48.6 70-40.3 30.2 8.5 48.7 39.8 40.3 70-8.3 30.3-39.8 48.8-70 40.3-30.8-8.4-48.6-39.7-40.3-70z"/>
	<path id="path1089" class="s13" d="m1046.7 919.3c6.2-22.5 29.2-35.9 51.6-29.7 22.5 6.1 35.8 29 29.7 51.5-6.2 22.4-29.2 35.8-51.6 29.6-22.3-6.2-35.2-29.1-29.7-51.4z"/>
	<path id="path1091" class="s13" d="m934.8 889.6c3.9-14.6 18.5-23.1 32.4-19 14.6 3.8 23 18.4 19.2 32.4-4.1 14.6-18.5 23-32.6 19-14.6-3.9-22.9-19-19-32.4z"/>
	<path id="path1093" class="s14" d="m1449.9 1254.5c-21.2 36.4-67.7 49.3-104.1 28.1-36.4-21.3-49.3-67.7-28-104.1 21.3-36.4 67.8-49.3 104.2-28 36.4 21.3 48.7 67.7 27.9 104z"/>
	<path id="path1095" class="s14" d="m1169.4 1154.4c-25.8-14.6-34.2-47-19.6-72.9 14.6-25.7 47-34.1 72.8-19.5 25.7 14.6 34.2 47 19.6 72.8-15.2 25.2-47.5 34.2-72.8 19.6z"/>
	<path id="path1097" class="s14" d="m1029.5 1056.4c-18.5-10.6-24.7-33.6-14.1-52.1 10.7-18.5 33.6-24.6 52.1-13.9 18.5 10.6 24.6 33.6 14 52.1-10.7 17.8-33.6 23.9-52 13.9z"/>
	<path id="path1099" class="s14" d="m923 978.6h-0.5c-11.8-7.4-16.3-22.4-9-34.1 7.3-11.8 22.4-15.7 34.2-9 11.7 7.2 15.6 22.3 8.9 34.1-6.7 11.8-21.8 15.7-33.6 9z"/>
	<path id="path1101" class="s15" d="m1308.8 1327.9c27 26.9 27 70 0 96.9-26.9 26.8-70 26.8-96.9 0-26.8-26.9-26.8-70 0-96.9 26.9-26.3 70.6-26.3 96.9 0z"/>
	<path id="path1103" class="s15" d="m1072 1258c-19.7-19.2-19.7-50.5 0-70 19-19.7 50.4-19.7 70 0 19.6 19 19.6 50.3 0 70-19.6 19.5-51 19.5-70 0z"/>
	<path id="path1105" class="s15" d="m962.8 1126.9c-13.4-12.8-13.4-34.6 0-48.2 13.4-13.4 35.2-13.4 48.7 0 13.4 13.6 13.4 35.4 0 48.8-13.5 13.5-35.3 13.5-48.7-0.6z"/>
	<path id="path1107" class="s15" d="m878.2 993.7c9-8.9 23.5-8.9 32.5 0 9 9 9 23.5 0 32.4-9 9-23.5 9-32.5 0-9-8.9-9-23.4 0-32.4z"/>
	<path id="path1109" class="s16" d="m1156.5 1466.7c17.9 30.8 7.4 70.5-23.4 88.5-30.8 17.9-70.6 7.2-88.5-23.6-18-30.8-7.4-70.4 23.4-88.3 30.8-18 70.6-7.4 88.5 23.4z"/>
	<path id="path1111" class="s16" d="m1014.3 1351.4c-22.5 12.9-49.9 5.1-62.8-16.8-12.8-22.4-4.9-49.8 16.9-62.7 22.4-12.8 49.8-5.1 62.7 16.9 12.8 21.8 5.1 49.8-16.8 62.6z"/>
	<path id="path1113" class="s16" d="m880.5 1179.5c-8.5-14.6-3.4-33 11.2-41.3 14.5-8.5 32.9-3.4 41.4 11.1 8.4 14.6 3.3 33-11.1 41.5-14.6 8.3-33.1 3.3-41.5-11.3z"/>
	<path id="path1115" class="s16" d="m859.2 1040.2c5.6 10 2.3 22.9-7.8 28.5-10.2 5.6-23 2.3-28.6-7.8-5.7-10.1-2.3-23 7.9-28.6 10-5.6 22.9-2.2 28.5 7.9z"/>
	<path id="path1117" class="s17" d="m972.3 1560.8c9 32.4-10.6 65.5-43.1 74.4-32.5 9-65.5-10.5-74.4-43.1-9-32.4 10.5-65.4 43.1-74.4 32.4-9 66 10.6 74.4 43.1z"/>
	<path id="path1119" class="s17" d="m816.6 1377.1c-5.6-22.3 7.4-45.2 29.7-51.4 22.4-6.1 45.4 7.3 51.6 29.6 6.1 22.4-7.4 45.4-29.8 51.6-22.3 6.1-45.3-6.7-51.5-29.8z"/>
	<path id="path1121" class="s17" d="m820.5 1229.9c-15 4-30.8-5-34.7-20.1-3.9-15.1 5.1-30.8 20.2-34.7 15.2-4 30.8 5 34.7 20.1 4.6 15.7-4.4 31.3-20.2 34.7z"/>
	<path id="path1123" class="s17" d="m784.2 1094.4c-10.7 2.8-20.7-3.4-23.6-13.4-2.8-10 3.4-20.7 13.4-23.6 10.2-2.6 20.8 3.5 23.6 13.6 2.8 10-3.4 20.7-13.4 23.4z"/>
	<circle id="path1125" class="s18" cx="713" cy="1602.8" r="57.2"/>
	<circle id="path1127" class="s18" cx="713" cy="1385.6" r="38"/>
	<circle id="path1129" class="s18" cx="713" cy="1215.4" r="26.9"/>
	<circle id="path1131" class="s18" cx="713" cy="1084.4" r="17.4"/>
	<path id="path1133" class="s19" d="m564.1 1589.9c-7.9 27.9-36.9 45.3-65.6 37.6-27.9-7.9-45.4-37-37.5-65.6 7.9-28 37-45.3 65.5-37.5 28.7 7.9 45.4 36.9 37.6 65.5z"/>
	<path id="path1135" class="s19" d="m602.1 1375c-5 17.8-23.5 29-42 24-17.9-5-29-23.5-24.1-42 5.1-17.9 23.6-29.1 42-24 18.5 5 29.2 24 24.1 42z"/>
	<path id="path1137" class="s19" d="m636.8 1208.7c-3.3 12.9-16.7 20.6-30.1 17.3-13-3.4-20.8-16.7-17.4-30.3 3.3-12.8 16.7-20.6 30.2-17.2 13.4 3.8 21.3 17.2 17.3 30.2z"/>
	<path id="path1139" class="s19" d="m643.6 1090c-7.9-1.8-12.3-10.6-10.7-18.5 1.8-7.9 10.7-12.3 18.5-10.6 7.9 1.6 12.9 10.1 10.7 18.5-2.3 8.3-10.7 12.9-18.5 10.6z"/>
	<path id="path1141" class="s20" d="m369.2 1523.3c-14 23.4-44.3 31.3-67.7 18-23.6-14.1-31.4-44.4-18-67.8 14.1-23.5 44.2-31.4 67.8-17.9 23.5 13.9 32 44.2 17.9 67.7z"/>
	<path id="path1143" class="s20" d="m461.6 1325.7c-8.5 14.5-26.9 19.6-41.4 11.1-14.6-8.4-19.7-26.9-11.2-41.3 8.4-14.6 26.9-19.7 41.3-11.3 14.6 8.5 19.7 26.9 11.3 41.5z"/>
	<path id="path1145" class="s20" d="m500.3 1152.1c6.1-11.1 20.1-14.6 31.3-8.4 11.2 6.1 14.6 20.2 8.4 31.4-6.1 11.1-20.2 14.5-31.3 8.3-11.2-6.1-14.6-20.1-8.4-31.3z"/>
	<path id="path1147" class="s20" d="m597.7 1055.8c-3.3 6.7-11.8 9-17.9 5.1-6.7-3.5-9-11.8-5.1-17.9 3.3-6.7 11.8-9 17.9-5.1 6.2 3.9 8.5 12.3 5.1 17.9z"/>
	<path id="path1149" class="s21" d="m198.9 1343c18 17.9 18 47 0 64.9-17.9 18-47 18-64.9 0-17.9-17.9-17.9-47 0-64.9 17.9-17.9 47-17.9 64.9 0z"/>
	<path id="path1151" class="s21" d="m339 1203.1c10.7 10 10 26.8 0 37.5-10.1 10.6-26.9 10.6-37.5 0-10.7-10.1-10.7-26.9 0-37.5 10-10.7 27.4-10.7 37.5 0z"/>
	<path id="path1153" class="s21" d="m454.9 1087.2c8.4 8.4 8.4 21.3 0 29.7-8.4 8.3-21.3 8.3-29.7 0-8.5-8.4-8.5-21.3 0-29.7 7.9-8.5 21.3-8.5 29.7 0z"/>
	<path id="path1155" class="s21" d="m541.6 1017.2c-4.4 4-11.1 4-15.6 0-4.4-3.9-5-11.2-0.6-15.7 3.9-4.4 11.3-5 15.7-0.5 4.6 4.5 4.6 11.7 0.5 16.2z"/>
	<path id="path1157" class="s22" d="m79.7 1194.1c11.7 20.1 5 45.4-15.2 57.1-20.1 11.7-45.2 5-57-15.2-11.8-20-5.1-45.2 15.1-57 20.1-11.8 45.9-5.1 57.1 15.1z"/>
	<path id="path1159" class="s22" d="m251.7 1095.1c6.1 11.1 2.1 25.1-8.5 31.3-11.2 6.1-25.1 2.3-31.3-8.4-6.3-11.3-2.3-25.2 8.3-31.4 11.3-6.1 25.2-2.2 31.5 8.5z"/>
	<path id="path1161" class="s22" d="m394.9 1012.2c5.6 9 2.3 20.6-6.7 25.7-8.9 5.6-20.7 2.3-25.7-6.7-5.6-9-2.3-20.7 6.7-25.7 9-5.6 20.8-2.3 25.7 6.7z"/>
</svg>